<?xml version="1.0" encoding="iso-8859-1"?>
<!-- Generator: Adobe Illustrator 18.0.0, SVG Export Plug-In . SVG Version: 6.00 Build 0)  -->
<!DOCTYPE svg PUBLIC "-//W3C//DTD SVG 1.1//EN" "http://www.w3.org/Graphics/SVG/1.1/DTD/svg11.dtd">
<svg version="1.1" id="Capa_1" xmlns="http://www.w3.org/2000/svg" xmlns:xlink="http://www.w3.org/1999/xlink" x="0px" y="0px"
	 viewBox="0 0 489.944 489.944" style="enable-background:new 0 0 489.944 489.944;" xml:space="preserve">
<g>
	<g>
		<path style="fill:#020202;" d="M489.944,192.909c-0.5-85.491-70.167-154.904-155.773-154.904h-41.704
			c-16.072,0-29.135,13.08-29.135,29.142v126.123H110.495L63.783,79.472c-2.589-6.294-8.721-10.408-15.53-10.408H16.783
			C7.514,69.064,0,76.579,0,85.848c0,9.269,7.514,16.784,16.783,16.784h20.218l37.197,90.638h-1.13c-3.27,0-6.386,1.367-8.605,3.77
			c-2.212,2.41-3.32,5.629-3.057,8.883c6.442,79.575,73.068,142.152,154.297,142.152h119.485
			c85.303,0,154.45-68.605,154.752-153.833L489.944,192.909z M298.204,192.909V72.883h35.968
			c66.381,0,120.396,53.761,120.894,120.026H298.204z"/>
	</g>
	<g>
		<path style="fill:#020202;" d="M216.941,366.973c-23.422,0-42.484,19.061-42.484,42.484c0,23.421,19.061,42.483,42.484,42.483
			c23.421,0,42.483-19.062,42.483-42.483C259.424,386.034,240.362,366.973,216.941,366.973z M216.941,418.373
			c-4.917,0-8.917-4-8.917-8.916c0-4.917,4-8.917,8.917-8.917c4.916,0,8.916,3.999,8.916,8.917
			C225.857,414.373,221.857,418.373,216.941,418.373z"/>
	</g>
	<g>
		<path style="fill:#020202;" d="M334.426,366.973c-23.423,0-42.485,19.061-42.485,42.484c0,23.421,19.062,42.483,42.485,42.483
			c23.421,0,42.482-19.062,42.482-42.483C376.909,386.034,357.848,366.973,334.426,366.973z M334.426,418.373
			c-4.917,0-8.917-4-8.917-8.916c0-4.917,4-8.917,8.917-8.917c4.916,0,8.916,3.999,8.916,8.917
			C343.342,414.373,339.342,418.373,334.426,418.373z"/>
	</g>
</g>
<g>
</g>
<g>
</g>
<g>
</g>
<g>
</g>
<g>
</g>
<g>
</g>
<g>
</g>
<g>
</g>
<g>
</g>
<g>
</g>
<g>
</g>
<g>
</g>
<g>
</g>
<g>
</g>
<g>
</g>
</svg>
